<svg width="208" height="85" viewBox="0 0 208 85" fill="none" xmlns="http://www.w3.org/2000/svg">
<path d="M184.687 56.4784L195.284 49.3707C192.809 46.8318 189.285 46.0938 186.063 48.2551C183.04 50.2827 182.757 53.9556 184.687 56.4784ZM198.161 48.4903C198.401 48.759 198.694 49.0875 198.98 49.4682L186.09 58.1133C188.658 60.8759 193.106 61.519 196.295 59.38C198.62 57.8203 199.376 55.4525 199.122 53.6189L201.881 53.6771C201.917 56.993 200.396 59.3965 197.838 61.1121C193.221 64.2092 187.005 63.3685 183.253 59.1577C179.501 54.9469 180.128 49.5163 184.546 46.5529C189.43 43.2775 194.755 44.6677 198.161 48.4903Z" fill="#38327B"/>
<path d="M178.026 36.2681V66.5081H175.306V36.2681H178.026Z" fill="#A49DEB"/>
<path d="M149.943 46.7614V49.2124H144.267V60.9514C144.267 63.9614 145.514 64.6494 147.277 64.6494C148.094 64.6494 149.04 64.3914 149.814 64.0044L149.943 66.5414C148.911 66.9284 147.836 67.1434 146.503 67.1434C144.353 67.1434 141.343 66.1974 141.343 61.7684V49.2124H137.172V46.7614H141.343V41.0854H144.267V46.7614H149.943Z" fill="#A49DEB"/>
<path d="M157.68 46.8589L164.04 62.6589H164.12L169.92 46.8589H172.88L163.56 70.4189C162.44 73.2989 160.92 75.1789 157.68 75.1789C156.88 75.1789 156.04 75.0989 155.24 74.9389L155.52 72.4589C156.12 72.6589 156.8 72.7789 157.52 72.7789C159.36 72.7789 160.32 71.5789 161.12 69.4589L162.64 65.5389L154.64 46.8589H157.68Z" fill="#38327B"/>
<path d="M196.04 23.2495V25.5295H190.76V36.4495C190.76 39.2495 191.92 39.8895 193.56 39.8895C194.32 39.8895 195.2 39.6495 195.92 39.2895L196.04 41.6495C195.08 42.0095 194.08 42.2095 192.84 42.2095C190.84 42.2095 188.04 41.3295 188.04 37.2095V25.5295H184.16V23.2495H188.04V17.9695H190.76V23.2495H196.04Z" fill="#38327B"/>
<path d="M182.453 23.2495V25.5295H178.053V41.9695H175.333V25.5295H171.413V23.2495H175.333V18.1295C175.333 13.8895 177.413 11.2495 181.693 11.2495C182.373 11.2495 183.253 11.3295 183.933 11.5295L183.453 13.9295C182.893 13.7695 182.293 13.6495 181.573 13.6495C178.653 13.6495 178.053 15.7295 178.053 18.4495V23.2495H182.453Z" fill="#A49DEB"/>
<path d="M168.26 23.2495V41.9695H165.54V23.2495H168.26ZM168.82 16.0495C168.82 17.1695 167.86 17.9695 166.9 17.9695C165.94 17.9695 164.98 17.1695 164.98 16.0495C164.98 14.9295 165.94 14.1295 166.9 14.1295C167.86 14.1295 168.82 14.9295 168.82 16.0495Z" fill="#38327B"/>
<path d="M135.04 23.2495H137.96L142.48 38.4495H142.56L147.6 23.2495H150.24L155.36 38.4495H155.44L159.92 23.2495H162.8L156.88 41.9695H153.92L148.92 26.8095H148.84L143.92 41.9695H140.96L135.04 23.2495Z" fill="#A49DEB"/>
<path d="M130.23 16.8L125.67 20.48C123.27 17.04 119.35 14.8 113.99 14.8C108.39 14.8 101.91 18.16 101.91 25.44C101.91 32.64 107.91 34.48 114.23 36.56C122.23 39.2 131.03 41.76 131.03 53.12C131.03 64.48 121.51 69.44 112.55 69.44C105.67 69.44 98.7901 66.64 94.7101 61.04L99.6701 57.36C102.15 61.36 106.71 64.48 112.63 64.48C118.47 64.48 125.19 60.8 125.19 53.52C125.19 45.6 118.55 43.6 111.35 41.36C103.83 39.04 96.1501 35.76 96.1501 25.52C96.1501 14.56 105.91 9.92 114.23 9.92C121.83 9.92 127.51 13.12 130.23 16.8Z" fill="#38327B"/>
<rect x="16.0707" y="3.43555" width="17.1421" height="17.0965" rx="4" fill="#E4BE8D"/>
<rect x="19.9991" y="62.2046" width="13.2137" height="13.1785" rx="2" fill="#A49DEB"/>
<path d="M71.7825 33.7926C71.7825 31.5835 73.5733 29.7926 75.7825 29.7926H86.7102C88.9193 29.7926 90.7102 31.5835 90.7102 33.7926V44.67C90.7102 46.8791 88.9193 48.67 86.7102 48.67H75.7825C73.5733 48.67 71.7825 46.8791 71.7825 44.67V33.7926Z" fill="#38327B"/>
<path d="M10.3635 35.2557L9.42139 53.4612L23.0824 53.6961L23.318 35.2557" stroke="#E4BE8D"/>
<path d="M23.2002 39.2492L24.2601 40.3063L28.0287 38.0747L24.7312 30.4402C23.4942 29.5103 22.6037 28.9885 21.0804 28.4217C20.7914 28.3141 20.4795 28.205 20.1383 28.0911M20.1383 28.0911C17.7013 29.1586 16.3347 29.2074 13.8966 28.0911M20.1383 28.0911C20.2993 29.7254 19.2725 30.8411 16.4875 30.6751C14.4354 30.4481 13.7704 29.9558 13.8966 28.0911M13.8966 28.0911C13.7342 28.1163 13.5773 28.1423 13.4255 28.1692M10.128 39.1318L8.71479 40.0714L4.94623 36.9001L8.36149 30.4402C8.48191 30.3494 8.5995 30.2622 8.71479 30.1784M13.4255 28.1692C13.3047 28.1906 13.187 28.2126 13.0722 28.2352C11.2636 28.5924 10.1731 29.1177 8.71479 30.1784M13.4255 28.1692C13.4573 30.1735 14.1539 30.7096 16.1342 31.0274C18.9846 31.1025 20.2544 30.5792 20.5616 28.2352M8.71479 30.1784C9.96445 31.0008 10.2012 31.6129 10.3635 32.7892M24.3769 30.1784C23.7563 30.5759 23.4727 31.3829 23.4357 32.3194" stroke="#E4BE8D"/>
<path d="M0.75 32.4499C0.75 28.4459 3.99593 25.2 8 25.2H25.2105C29.2145 25.2 32.4605 28.4459 32.4605 32.45V49.1023C32.4605 53.1064 29.2145 56.3523 25.2105 56.3523H8C3.99594 56.3523 0.75 53.1063 0.75 49.1023V32.4499Z" stroke="#E4BE8D" stroke-width="1.5"/>
<ellipse cx="0.235535" cy="0.240072" rx="0.235535" ry="0.240072" transform="matrix(1 0 0 -1 41.8098 32.4417)" fill="#38327B"/>
<ellipse cx="0.235535" cy="0.240072" rx="0.235535" ry="0.240072" transform="matrix(1 0 0 -1 51.9378 25.9598)" fill="#38327B"/>
<ellipse cx="0.235535" cy="0.240072" rx="0.235535" ry="0.240072" transform="matrix(1 0 0 -1 51.9378 24.2178)" fill="#38327B"/>
<ellipse cx="0.235535" cy="0.240072" rx="0.235535" ry="0.240072" transform="matrix(1 0 0 -1 51.9378 27.4001)" fill="#38327B"/>
<ellipse cx="0.235535" cy="0.240072" rx="0.235535" ry="0.240072" transform="matrix(1 0 0 -1 51.9378 30.2811)" fill="#38327B"/>
<ellipse cx="0.235535" cy="0.240072" rx="0.235535" ry="0.240072" transform="matrix(1 0 0 -1 51.9378 33.1619)" fill="#38327B"/>
<ellipse cx="0.235535" cy="0.240072" rx="0.235535" ry="0.240072" transform="matrix(1 0 0 -1 51.9378 34.6024)" fill="#38327B"/>
<ellipse cx="0.235535" cy="0.240072" rx="0.235535" ry="0.240072" transform="matrix(1 0 0 -1 51.9378 36.0427)" fill="#38327B"/>
<ellipse cx="0.235535" cy="0.240072" rx="0.235535" ry="0.240072" transform="matrix(1 0 0 -1 51.9378 37.4833)" fill="#38327B"/>
<ellipse cx="0.235535" cy="0.240072" rx="0.235535" ry="0.240072" transform="matrix(1 0 0 -1 51.9378 41.8044)" fill="#38327B"/>
<ellipse cx="0.235535" cy="0.240072" rx="0.235535" ry="0.240072" transform="matrix(1 0 0 -1 51.9378 43.2449)" fill="#38327B"/>
<ellipse cx="0.235535" cy="0.240072" rx="0.235535" ry="0.240072" transform="matrix(1 0 0 -1 51.9378 40.364)" fill="#38327B"/>
<ellipse cx="0.235535" cy="0.240072" rx="0.235535" ry="0.240072" transform="matrix(1 0 0 -1 51.9378 38.9236)" fill="#38327B"/>
<ellipse cx="0.235535" cy="0.240072" rx="0.235535" ry="0.240072" transform="matrix(1 0 0 -1 51.9378 31.7216)" fill="#38327B"/>
<ellipse cx="0.235535" cy="0.240072" rx="0.235535" ry="0.240072" transform="matrix(1 0 0 -1 51.9378 28.8406)" fill="#38327B"/>
<ellipse cx="0.235535" cy="0.240072" rx="0.235535" ry="0.240072" transform="matrix(1 0 0 -1 53.2119 24.2178)" fill="#38327B"/>
<ellipse cx="0.235535" cy="0.240072" rx="0.235535" ry="0.240072" transform="matrix(1 0 0 -1 54.6404 24.2178)" fill="#38327B"/>
<ellipse cx="0.235535" cy="0.240072" rx="0.235535" ry="0.240072" transform="matrix(1 0 0 -1 56.0688 24.2178)" fill="#38327B"/>
<ellipse cx="0.235535" cy="0.240072" rx="0.235535" ry="0.240072" transform="matrix(1 0 0 -1 57.4974 24.2178)" fill="#38327B"/>
<ellipse cx="0.235535" cy="0.240072" rx="0.235535" ry="0.240072" transform="matrix(1 0 0 -1 58.9259 24.2178)" fill="#38327B"/>
<ellipse cx="0.235535" cy="0.240072" rx="0.235535" ry="0.240072" transform="matrix(1 0 0 -1 44.6362 30.5211)" fill="#38327B"/>
<ellipse cx="0.235535" cy="0.240072" rx="0.235535" ry="0.240072" transform="matrix(1 0 0 -1 46.0494 29.5609)" fill="#38327B"/>
<ellipse cx="0.235535" cy="0.240072" rx="0.235535" ry="0.240072" transform="matrix(1 0 0 -1 47.4626 28.6006)" fill="#38327B"/>
<ellipse cx="0.235535" cy="0.240072" rx="0.235535" ry="0.240072" transform="matrix(1 0 0 -1 43.223 31.4814)" fill="#38327B"/>
<path d="M49.8441 43.7249C50.6988 43.8138 50.9438 43.5836 51.1396 42.8847V31.4813M49.8441 43.7249H59.2655C59.8066 43.7741 59.9896 43.5944 60.0899 42.8847L61.6209 28.6004C61.5296 27.5391 61.1581 27.0724 60.0899 24.9841M49.8441 43.7249L42.5426 34.0621M60.0899 24.9841V23.0251H51.1396V24.9841M60.0899 24.9841H51.1396M51.1396 24.9841V31.4813M48.9936 29.3206L42.7781 33.882L42.5426 34.0621M48.9936 29.3206L51.1396 31.4813M48.9936 29.3206L49.4647 28.9605L48.6403 27.7602L47.6982 26.4398L45.5784 28.0003L43.5763 29.4407L41.9276 30.641L41.1621 31.1812L40.3966 31.7214L40.8382 32.3816L41.2799 33.0418L42.1631 34.3622L42.5426 34.0621" stroke="#38327B"/>
<path d="M54.7642 29.2008V30.5478C54.7642 31.9349 55.6136 32.6818 56.7056 32.6818C58.0403 32.6818 58.7683 31.8282 58.7683 30.5478V29.2008M54.7642 29.2008V27.8804H58.7683V29.2008M54.7642 29.2008H58.7683" stroke="#38327B"/>
<path d="M36.4626 24.2578C36.4626 20.2537 39.7085 17.0078 43.7126 17.0078H60.9254C64.9294 17.0078 68.1754 20.2537 68.1754 24.2578V41.3822C68.1754 45.3863 64.9294 48.6323 60.9254 48.6323H43.7126C39.7085 48.6323 36.4626 45.3863 36.4626 41.3823V24.2578Z" stroke="#38327B" stroke-width="1.5"/>
<path d="M46.644 61.2369C45.1067 61.2369 43.5694 62.6238 43.5694 64.1502V75.8339C43.5694 77.1191 44.7519 78.8793 46.5257 78.8793H58.3511C59.6519 78.8793 61.4257 77.462 61.4257 75.8339V63.7997C61.4257 62.5145 60.1249 61.2369 58.4694 61.2369H55.3948H49.6003H46.644Z" stroke="#A49DEB" stroke-width="1.5"/>
<path d="M49.6406 61.1362C49.6406 58.9427 51.0399 58.2867 52.5559 58.2867C54.0718 58.2867 55.3546 59.052 55.3546 61.1362" stroke="#A49DEB" stroke-width="1.5"/>
<path d="M36.4626 59.8756C36.4626 55.8715 39.7085 52.6256 43.7126 52.6256H60.9254C64.9294 52.6256 68.1754 55.8715 68.1754 59.8756V77C68.1754 81.0041 64.9294 84.25 60.9254 84.25H43.7126C39.7085 84.25 36.4626 81.0041 36.4626 77V59.8756Z" stroke="#A49DEB" stroke-width="1.5"/>
<ellipse cx="48.6585" cy="65.1432" rx="1.16066" ry="1.15757" fill="#A49DEB"/>
<ellipse cx="56.1582" cy="65.1558" rx="1.16066" ry="1.17016" fill="#A49DEB"/>
</svg>
